<svg width="137" height="32" viewBox="0 0 137 32" fill="none" xmlns="http://www.w3.org/2000/svg">
<path d="M12.8023 2.77086C13.0716 1.21948 14.4185 0.0866699 15.9938 0.0866699H41.7722L41.4153 0.518357C40.5746 1.53496 40.0138 2.75317 39.7883 4.05266Lnan nanL39.7883 4.05266L39.1 8.01865L37.7234 15.9506L34.9701 31.8146H7.76172L12.8023 2.77086Z" fill="#1BAAE2"/>
<path d="M0 13.3638H29.0057C30.5778 13.3638 31.9226 14.4931 32.1942 16.0414L34.9616 31.8147H7.25076C5.67872 31.8147 4.33392 30.6853 4.06227 29.137L2.91347 22.5892L2.10417 17.9765Lnan nanL2.10417 17.9765C1.83803 16.4596 1.22406 15.0249 0.310415 13.785L0 13.3638Z" fill="#F7C71D"/>
<path fill-rule="evenodd" clip-rule="evenodd" d="M7.76172 31.8147H34.9625L32.1943 16.0414C31.9225 14.4931 30.5773 13.3638 29.0048 13.3638H10.9636L7.76172 31.8147Z" fill="#069257"/>
<path d="M54.8085 8.19331C53.8039 8.19331 52.9475 8.19331 51.9593 8.19331C51.8935 13.2658 61.2808 13.1834 61.2808 8.34153C61.2808 5.45946 59.041 5.11362 56.7518 4.86658C55.7143 4.7513 54.8579 4.57014 54.9237 3.69728C55.0226 2.33036 58.1187 2.19861 58.1187 3.73022C59.1233 3.73022 59.8809 3.73022 60.9184 3.73022C60.9843 -1.24341 52.0252 -1.24341 52.124 3.73022C52.157 6.23351 53.8039 7.08989 56.3071 7.27105C57.46 7.33693 58.4152 7.51809 58.4152 8.32506C58.4152 9.67552 54.8085 9.65905 54.8085 8.19331Z" fill="#212121"/>
<path d="M66.871 9.13205V2.75855H68.2214V0.189393H62.6055V2.75855H63.9559V9.13205H62.4902V11.7177H68.3367V9.13205H66.871Z" fill="#212121"/>
<path d="M74.6124 0.189393H70.2646V11.7177H74.6124C82.1222 11.6847 82.1222 0.222332 74.6124 0.189393ZM73.2125 2.87384H74.6124C78.285 2.87384 78.285 9.03323 74.6124 9.03323H73.2125V2.87384Z" fill="#212121"/>
<path d="M89.6846 0.189393C86.9837 0.189393 85.1556 0.189393 82.4877 0.189393C82.4877 4.01019 82.4877 7.86393 82.4877 11.7177C85.1556 11.7177 87.1319 11.7177 89.8328 11.7177C89.8328 10.8448 89.8328 9.95549 89.8328 9.09911C88.1036 9.09911 87.1154 9.09911 85.4191 9.09911C85.4191 8.40741 85.4191 7.74865 85.4191 7.07342H89.3387C89.3387 6.20057 89.3387 5.32771 89.3387 4.45486H85.4191V2.82443C87.1154 2.82443 87.9718 2.82443 89.6846 2.82443C89.6846 1.9351 89.6846 1.04578 89.6846 0.189393Z" fill="#212121"/>
<path d="M100.877 3.73022C100.877 1.73748 99.2796 0.189393 97.2868 0.189393H92.3626V11.7177H97.7644C100.119 11.7177 101.338 10.0872 101.355 8.07803C101.355 7.05695 100.91 6.20057 99.9713 5.72297C100.531 5.26184 100.877 4.42192 100.877 3.73022ZM97.5503 7.1393C98.7361 7.1393 98.7526 9.09911 97.5668 9.09911H95.2117V7.1393H97.5503ZM97.0563 2.82443C98.242 2.82443 98.242 4.68542 97.0727 4.68542H95.2117V2.82443H97.0563Z" fill="#212121"/>
<path d="M110.982 11.7177H113.864V11.2895L108.659 0.0411723H107.391L102.204 11.2895V11.7177H105.086L105.761 10.2684H110.306L110.982 11.7177ZM109.351 7.74865H106.716L108.017 4.71836L109.351 7.74865Z" fill="#212121"/>
<path d="M122.854 7.63337C125.769 5.65709 124.946 0.205862 120.417 0.189393C118.737 0.189393 117.024 0.189393 115.361 0.189393C115.361 4.04313 115.361 7.8804 115.361 11.7177C116.316 11.7177 117.321 11.7177 118.309 11.7177V8.32506H119.84L121.817 11.7177H125.11V11.2895L122.854 7.63337ZM120.417 5.7065H118.309C118.309 4.78424 118.309 3.76316 118.309 2.82443C119.001 2.82443 119.725 2.80796 120.417 2.82443C122.097 2.8409 122.014 5.7065 120.417 5.7065Z" fill="#212121"/>
<path d="M52.2168 21.3409H53.0909C53.0991 21.5243 53.1867 21.6629 53.3538 21.7566C53.525 21.8504 53.7246 21.8972 53.9529 21.8972C54.4989 21.8972 54.772 21.7179 54.772 21.3593C54.772 21.2656 54.7496 21.184 54.7047 21.1148C54.664 21.0455 54.6171 20.9945 54.5641 20.9619C54.5112 20.9253 54.4358 20.8947 54.338 20.8703C54.2402 20.8458 54.1587 20.8295 54.0934 20.8214C54.0323 20.8132 53.9467 20.805 53.8367 20.7969C52.7975 20.7072 52.2779 20.3018 52.2779 19.5804C52.2779 19.1362 52.4328 18.8021 52.7425 18.5779C53.0522 18.3497 53.4394 18.2356 53.904 18.2356C54.1159 18.2356 54.3135 18.2601 54.4969 18.309C54.6844 18.3538 54.8576 18.4251 55.0165 18.5229C55.1754 18.6207 55.3018 18.7572 55.3955 18.9325C55.4892 19.1036 55.5361 19.3033 55.5361 19.5315H54.6803C54.6558 19.3685 54.5703 19.2463 54.4235 19.1648C54.2768 19.0792 54.1036 19.0364 53.904 19.0364C53.7083 19.0364 53.5372 19.0853 53.3905 19.1831C53.2478 19.2768 53.1765 19.4032 53.1765 19.5621C53.1765 19.7333 53.2458 19.8555 53.3844 19.9289C53.527 19.9982 53.7308 20.0471 53.9956 20.0756C54.2524 20.1 54.4684 20.1326 54.6436 20.1734C54.8229 20.2141 54.9961 20.2793 55.1632 20.369C55.3344 20.4587 55.4627 20.587 55.5483 20.7541C55.6339 20.9171 55.6767 21.1188 55.6767 21.3593C55.6767 21.5997 55.6278 21.8096 55.53 21.9889C55.4322 22.1682 55.2977 22.3068 55.1265 22.4046C54.9594 22.5024 54.7781 22.5737 54.5825 22.6185C54.3909 22.6674 54.1831 22.6939 53.959 22.698C53.4862 22.698 53.0767 22.5819 52.7303 22.3496C52.388 22.1132 52.2168 21.777 52.2168 21.3409Z" fill="#616161"/>
<path d="M56.3769 19.1831C56.2751 19.0934 56.2241 18.9691 56.2241 18.8102C56.2241 18.6513 56.2751 18.529 56.3769 18.4434C56.4788 18.3579 56.599 18.3171 56.7376 18.3212C56.868 18.3253 56.9821 18.3701 57.0799 18.4557C57.1777 18.5412 57.2266 18.6594 57.2266 18.8102C57.2266 18.9651 57.1777 19.0853 57.0799 19.1709C56.9862 19.2565 56.8741 19.3013 56.7437 19.3054C56.6052 19.3094 56.4829 19.2687 56.3769 19.1831ZM57.1533 19.6966V22.6063H56.2975V19.6966H57.1533Z" fill="#616161"/>
<path d="M57.7735 21.7077H58.6293C58.6334 21.8218 58.6823 21.9094 58.776 21.9706C58.8697 22.0317 58.9818 22.0602 59.1122 22.0562C59.4464 22.0562 59.6155 21.9441 59.6196 21.7199C59.6196 21.6629 59.6094 21.616 59.589 21.5793C59.5686 21.5427 59.532 21.5141 59.479 21.4938C59.4301 21.4734 59.3893 21.4612 59.3567 21.4571C59.3241 21.4489 59.2711 21.4388 59.1978 21.4265C58.7414 21.3654 58.4296 21.2941 58.2625 21.2126C57.9773 21.074 57.8346 20.854 57.8346 20.5524C57.8346 20.2345 57.9508 19.9941 58.1831 19.8311C58.4153 19.664 58.721 19.5804 59.1 19.5804C59.4749 19.5804 59.7846 19.664 60.0291 19.8311C60.2777 19.9941 60.3939 20.2243 60.3776 20.5218H59.5707C59.5666 20.4199 59.5218 20.3445 59.4362 20.2956C59.3506 20.2467 59.2426 20.2223 59.1122 20.2223C58.9859 20.2223 58.8779 20.2508 58.7882 20.3079C58.7027 20.3608 58.6599 20.4342 58.6599 20.5279C58.6599 20.5972 58.6843 20.6522 58.7332 20.693C58.7821 20.7337 58.831 20.7602 58.8799 20.7724C58.9329 20.7806 59.0001 20.7887 59.0817 20.7969C59.534 20.8499 59.8396 20.909 59.9986 20.9742C60.3246 21.1127 60.4835 21.3613 60.4754 21.7199C60.4713 21.9441 60.402 22.1315 60.2675 22.2823C60.1371 22.429 59.9762 22.533 59.7846 22.5941C59.5972 22.6552 59.3853 22.6858 59.1489 22.6858C58.2564 22.6858 57.7979 22.3598 57.7735 21.7077Z" fill="#616161"/>
<path d="M62.2038 18.7491V19.666H63.1635V20.3079H62.2038V21.451C62.2038 21.6425 62.2527 21.7872 62.3505 21.885C62.4523 21.9787 62.5766 22.0215 62.7233 22.0134C62.8701 22.0011 63.029 21.9685 63.2002 21.9156L63.2796 22.5635C63.0147 22.6369 62.7702 22.6756 62.5461 22.6797C62.326 22.6837 62.1243 22.6511 61.9409 22.5819C61.7616 22.5085 61.621 22.3781 61.5191 22.1906C61.4172 22.0032 61.3663 21.7627 61.3663 21.4693V20.3079L60.81 20.2529V19.666H61.4274L61.5191 18.7491H62.2038Z" fill="#616161"/>
<path d="M65.2003 19.5866C65.726 19.5866 66.1029 19.7455 66.3311 20.0634C66.5634 20.3812 66.6225 20.7969 66.5084 21.3104H64.5095C64.538 21.7179 64.7988 21.94 65.2919 21.9767C65.4631 21.9848 65.5935 21.9828 65.6832 21.9706C65.9603 21.938 66.1946 21.8789 66.3862 21.7933L66.484 22.4168C66.1131 22.592 65.7321 22.6797 65.3409 22.6797C64.8396 22.6878 64.4321 22.5493 64.1183 22.264C63.8086 21.9787 63.6537 21.5895 63.6537 21.0964C63.6618 20.6115 63.8147 20.2386 64.1122 19.9778C64.4137 19.717 64.7764 19.5866 65.2003 19.5866ZM65.2003 20.2406C65.0291 20.2406 64.8803 20.2875 64.754 20.3812C64.6277 20.4709 64.5482 20.5972 64.5156 20.7602H65.8115C65.8197 20.5809 65.7647 20.4505 65.6465 20.369C65.5283 20.2834 65.3796 20.2406 65.2003 20.2406Z" fill="#616161"/>
<path d="M71.9538 22.6063H71.0919V20.9008C71.1 20.7093 71.0593 20.5565 70.9696 20.4424C70.884 20.3282 70.7659 20.2732 70.6151 20.2773C70.4602 20.2814 70.3318 20.3405 70.23 20.4546C70.1281 20.5646 70.0751 20.7154 70.071 20.9069V22.6063H69.2274V20.9069C69.2315 20.7113 69.1867 20.5565 69.093 20.4424C69.0033 20.3282 68.879 20.2732 68.7201 20.2773C68.5571 20.2814 68.4185 20.3425 68.3044 20.4607C68.1944 20.5789 68.1394 20.7337 68.1394 20.9253V22.6063H67.2897V20.5585C67.2897 20.4036 67.2734 20.3018 67.2408 20.2529C67.2122 20.1999 67.1348 20.1734 67.0085 20.1734V19.6538C67.1185 19.6212 67.2285 19.6008 67.3386 19.5927C67.4486 19.5804 67.5627 19.5825 67.6809 19.5988C67.7991 19.611 67.8928 19.6579 67.9621 19.7394C68.0354 19.8168 68.0721 19.9248 68.0721 20.0634C68.1455 19.9044 68.2698 19.7862 68.445 19.7088C68.6243 19.6314 68.8158 19.5927 69.0196 19.5927C69.2682 19.5927 69.4618 19.6355 69.6003 19.721C69.7389 19.8066 69.8448 19.9431 69.9182 20.1306C70.0038 19.9594 70.1403 19.827 70.3278 19.7333C70.5193 19.6395 70.7231 19.5927 70.9391 19.5927C71.3262 19.5927 71.5952 19.7108 71.746 19.9472C71.8967 20.1795 71.966 20.4974 71.9538 20.9008V22.6063Z" fill="#616161"/>
<path d="M75.6179 21.8789H76.2231V22.6063H74.0958V21.8789H74.701V19.0364H74.1447V18.3273H76.1742V19.0364H75.6179V21.8789Z" fill="#616161"/>
<path d="M79.7982 22.6063H78.9363V20.9008C78.9445 20.7093 78.8935 20.5565 78.7835 20.4424C78.6775 20.3282 78.5431 20.2712 78.38 20.2712C78.2089 20.2712 78.0622 20.3303 77.9399 20.4485C77.8177 20.5626 77.7565 20.7195 77.7565 20.9192V22.6063H76.9007V20.5707C76.9007 20.4811 76.8987 20.4179 76.8946 20.3812C76.8946 20.3445 76.8844 20.3079 76.864 20.2712C76.8477 20.2345 76.8192 20.2121 76.7785 20.204C76.7418 20.1917 76.6888 20.1856 76.6195 20.1856V19.6538C77.3368 19.5315 77.6954 19.664 77.6954 20.0511C77.7728 19.8922 77.8992 19.776 78.0744 19.7027C78.2537 19.6293 78.4412 19.5927 78.6368 19.5927C79.0321 19.5927 79.3235 19.7129 79.5109 19.9533C79.7025 20.1938 79.7982 20.5096 79.7982 20.9008V22.6063Z" fill="#616161"/>
<path d="M80.8329 22.6063V20.2712H80.2888V19.666H80.8451L80.8512 19.2931C80.8512 19.0038 80.9042 18.7674 81.0102 18.584C81.1161 18.3966 81.2587 18.2702 81.4381 18.205C81.6214 18.1358 81.8211 18.1052 82.0371 18.1133C82.2572 18.1174 82.4935 18.1582 82.7462 18.2356L82.6606 18.8713C82.5424 18.8265 82.4283 18.798 82.3183 18.7858C82.2083 18.7695 82.1023 18.7715 82.0004 18.7919C81.8986 18.8123 81.8171 18.8673 81.7559 18.9569C81.6948 19.0425 81.6642 19.1607 81.6642 19.3115V19.666H82.5934V20.2712H81.6642V22.6063H80.8329Z" fill="#616161"/>
<path d="M85.499 19.9778C85.8128 20.2508 85.9697 20.6319 85.9697 21.1209C85.9697 21.6099 85.8148 21.9909 85.5051 22.264C85.1994 22.533 84.8367 22.6674 84.417 22.6674C83.9932 22.6674 83.6243 22.533 83.3106 22.264C83.0008 21.9909 82.846 21.6099 82.846 21.1209C82.846 20.64 82.9988 20.263 83.3044 19.99C83.6101 19.717 83.9728 19.5784 84.3925 19.5743C84.8204 19.5702 85.1892 19.7047 85.499 19.9778ZM83.9096 20.534C83.767 20.6726 83.6957 20.8682 83.6957 21.1209C83.6957 21.3735 83.7649 21.5712 83.9035 21.7138C84.0421 21.8524 84.2071 21.9217 84.3986 21.9217C84.5943 21.9257 84.7634 21.8565 84.906 21.7138C85.0486 21.5712 85.12 21.3735 85.12 21.1209C85.12 20.8723 85.0507 20.6787 84.9121 20.5402C84.7736 20.3975 84.6085 20.3262 84.417 20.3262C84.2214 20.3262 84.0522 20.3955 83.9096 20.534Z" fill="#616161"/>
<path d="M87.5102 20.0695C87.5672 19.9065 87.6711 19.7822 87.8219 19.6966C87.9768 19.611 88.1479 19.5682 88.3354 19.5682C88.5799 19.5601 88.7898 19.6232 88.965 19.7577L88.7755 20.4729C88.6044 20.3588 88.421 20.3058 88.2254 20.314C88.0297 20.314 87.8647 20.3771 87.7302 20.5035C87.5998 20.6257 87.5346 20.7949 87.5346 21.0108V22.6063H86.6971V20.5279C86.6971 20.3853 86.6788 20.2855 86.6421 20.2284C86.6054 20.1673 86.526 20.1469 86.4037 20.1673V19.6416C86.5586 19.6171 86.7134 19.6008 86.8683 19.5927C87.0272 19.5845 87.1699 19.6212 87.2962 19.7027C87.4225 19.7842 87.4938 19.9065 87.5102 20.0695Z" fill="#616161"/>
<path d="M94.1786 22.6063H93.3167V20.9008C93.3249 20.7093 93.2841 20.5565 93.1945 20.4424C93.1089 20.3282 92.9907 20.2732 92.8399 20.2773C92.685 20.2814 92.5567 20.3405 92.4548 20.4546C92.3529 20.5646 92.2999 20.7154 92.2959 20.9069V22.6063H91.4523V20.9069C91.4564 20.7113 91.4115 20.5565 91.3178 20.4424C91.2281 20.3282 91.1038 20.2732 90.9449 20.2773C90.7819 20.2814 90.6433 20.3425 90.5292 20.4607C90.4192 20.5789 90.3642 20.7337 90.3642 20.9253V22.6063H89.5145V20.5585C89.5145 20.4036 89.4982 20.3018 89.4656 20.2529C89.4371 20.1999 89.3596 20.1734 89.2333 20.1734V19.6538C89.3433 19.6212 89.4534 19.6008 89.5634 19.5927C89.6734 19.5804 89.7875 19.5825 89.9057 19.5988C90.0239 19.611 90.1176 19.6579 90.1869 19.7394C90.2603 19.8168 90.297 19.9248 90.297 20.0634C90.3703 19.9044 90.4946 19.7862 90.6698 19.7088C90.8491 19.6314 91.0407 19.5927 91.2444 19.5927C91.493 19.5927 91.6866 19.6355 91.8252 19.721C91.9637 19.8066 92.0697 19.9431 92.143 20.1306C92.2286 19.9594 92.3651 19.827 92.5526 19.7333C92.7441 19.6395 92.9479 19.5927 93.1639 19.5927C93.551 19.5927 93.82 19.7108 93.9708 19.9472C94.1216 20.1795 94.1908 20.4974 94.1786 20.9008V22.6063Z" fill="#616161"/>
<path d="M96.8334 22.154C96.7519 22.3251 96.6134 22.4535 96.4178 22.5391C96.2262 22.6206 96.0245 22.6613 95.8126 22.6613C95.5273 22.6613 95.2787 22.5778 95.0668 22.4107C94.859 22.2395 94.751 22.0154 94.7428 21.7383C94.7265 21.3919 94.8264 21.129 95.0424 20.9497C95.2583 20.7663 95.5395 20.6746 95.8859 20.6746C96.2079 20.6746 96.4687 20.7378 96.6684 20.8641V20.6624C96.6684 20.3812 96.4239 20.2406 95.9348 20.2406C95.5803 20.2406 95.2971 20.2997 95.0851 20.4179L94.9751 19.8066C95.2848 19.6599 95.6536 19.5866 96.0815 19.5866C97.0189 19.5866 97.4875 19.9533 97.4875 20.6869V21.7505C97.4875 21.832 97.4875 21.8891 97.4875 21.9217C97.4916 21.9543 97.5018 21.993 97.5181 22.0378C97.5344 22.0786 97.5609 22.1051 97.5975 22.1173C97.6383 22.1295 97.6933 22.1336 97.7626 22.1295L97.7687 22.6063C97.6138 22.6348 97.4671 22.6491 97.3286 22.6491C97.19 22.6491 97.0718 22.6083 96.974 22.5268C96.8803 22.4413 96.8334 22.317 96.8334 22.154ZM96.65 21.5488V21.396C96.483 21.2819 96.2792 21.2248 96.0388 21.2248C95.8961 21.233 95.78 21.2778 95.6903 21.3593C95.6007 21.4367 95.564 21.5447 95.5803 21.6833C95.5884 21.7851 95.6312 21.8646 95.7087 21.9217C95.7861 21.9746 95.8778 22.0011 95.9837 22.0011C96.1427 22.0011 96.2894 21.9624 96.4239 21.885C96.5624 21.8035 96.6378 21.6914 96.65 21.5488Z" fill="#616161"/>
<path d="M98.1459 21.7077H99.0017C99.0058 21.8218 99.0547 21.9094 99.1484 21.9706C99.2422 22.0317 99.3542 22.0602 99.4846 22.0562C99.8188 22.0562 99.9879 21.9441 99.992 21.7199C99.992 21.6629 99.9818 21.616 99.9615 21.5793C99.9411 21.5427 99.9044 21.5141 99.8514 21.4938C99.8025 21.4734 99.7618 21.4612 99.7292 21.4571C99.6966 21.4489 99.6436 21.4388 99.5702 21.4265C99.1138 21.3654 98.802 21.2941 98.635 21.2126C98.3497 21.074 98.2071 20.854 98.2071 20.5524C98.2071 20.2345 98.3232 19.9941 98.5555 19.8311C98.7878 19.664 99.0934 19.5804 99.4724 19.5804C99.8473 19.5804 100.157 19.664 100.402 19.8311C100.65 19.9941 100.766 20.2243 100.75 20.5218H99.9431C99.939 20.4199 99.8942 20.3445 99.8086 20.2956C99.723 20.2467 99.6151 20.2223 99.4846 20.2223C99.3583 20.2223 99.2503 20.2508 99.1607 20.3079C99.0751 20.3608 99.0323 20.4342 99.0323 20.5279C99.0323 20.5972 99.0567 20.6522 99.1057 20.693C99.1546 20.7337 99.2035 20.7602 99.2524 20.7724C99.3053 20.7806 99.3726 20.7887 99.4541 20.7969C99.9064 20.8499 100.212 20.909 100.371 20.9742C100.697 21.1127 100.856 21.3613 100.848 21.7199C100.844 21.9441 100.774 22.1315 100.64 22.2823C100.51 22.429 100.349 22.533 100.157 22.5941C99.9696 22.6552 99.7577 22.6858 99.5213 22.6858C98.6288 22.6858 98.1704 22.3598 98.1459 21.7077Z" fill="#616161"/>
<path d="M101.537 19.1831C101.435 19.0934 101.384 18.9691 101.384 18.8102C101.384 18.6513 101.435 18.529 101.537 18.4434C101.639 18.3579 101.759 18.3171 101.898 18.3212C102.028 18.3253 102.142 18.3701 102.24 18.4557C102.338 18.5412 102.387 18.6594 102.387 18.8102C102.387 18.9651 102.338 19.0853 102.24 19.1709C102.146 19.2565 102.034 19.3013 101.904 19.3054C101.765 19.3094 101.643 19.2687 101.537 19.1831ZM102.313 19.6966V22.6063H101.458V19.6966H102.313Z" fill="#616161"/>
<path d="M104.719 18.3334H106.309C106.957 18.3334 107.468 18.5433 107.843 18.963C108.218 19.3787 108.405 19.8759 108.405 20.4546C108.413 21.0373 108.23 21.5427 107.855 21.9706C107.48 22.3944 106.965 22.6063 106.309 22.6063H104.719V18.3334ZM105.63 21.7811H106.296C106.671 21.7811 106.965 21.6527 107.177 21.396C107.389 21.1392 107.494 20.8275 107.494 20.4607C107.494 20.098 107.386 19.7903 107.17 19.5376C106.959 19.285 106.667 19.1586 106.296 19.1586H105.63V21.7811Z" fill="#616161"/>
<path d="M111.509 19.9778C111.822 20.2508 111.979 20.6319 111.979 21.1209C111.979 21.6099 111.824 21.9909 111.515 22.264C111.209 22.533 110.846 22.6674 110.427 22.6674C110.003 22.6674 109.634 22.533 109.32 22.264C109.01 21.9909 108.856 21.6099 108.856 21.1209C108.856 20.64 109.008 20.263 109.314 19.99C109.62 19.717 109.982 19.5784 110.402 19.5743C110.83 19.5702 111.199 19.7047 111.509 19.9778ZM109.919 20.534C109.777 20.6726 109.705 20.8682 109.705 21.1209C109.705 21.3735 109.775 21.5712 109.913 21.7138C110.052 21.8524 110.217 21.9217 110.408 21.9217C110.604 21.9257 110.773 21.8565 110.916 21.7138C111.058 21.5712 111.13 21.3735 111.13 21.1209C111.13 20.8723 111.06 20.6787 110.922 20.5402C110.783 20.3975 110.618 20.3262 110.427 20.3262C110.231 20.3262 110.062 20.3955 109.919 20.534Z" fill="#616161"/>
<path d="M113.446 20.7419H113.654C113.968 20.7419 114.188 20.6461 114.314 20.4546C114.441 20.259 114.504 19.992 114.504 19.6538H115.311C115.319 19.9961 115.272 20.2895 115.17 20.534C115.068 20.7745 114.881 20.966 114.608 21.1087L115.451 22.5146V22.6002H114.589L113.886 21.3776C113.813 21.4021 113.732 21.4143 113.642 21.4143H113.446V22.6002H112.597V18.1378H113.446V20.7419Z" fill="#616161"/>
<path d="M117.961 19.6599H118.817V21.7199C118.817 21.8707 118.831 21.9706 118.86 22.0195C118.892 22.0643 118.97 22.0826 119.092 22.0745L119.098 22.6063C118.98 22.6348 118.864 22.6532 118.75 22.6613C118.64 22.6695 118.526 22.6634 118.407 22.643C118.293 22.6267 118.2 22.5798 118.126 22.5024C118.057 22.4209 118.022 22.3129 118.022 22.1784C117.945 22.3373 117.819 22.4555 117.643 22.533C117.472 22.6104 117.285 22.6491 117.081 22.6491C116.351 22.6491 115.987 22.2151 115.987 21.3471V19.6599H116.849V21.3471C116.84 21.5467 116.883 21.7016 116.977 21.8116C117.075 21.9217 117.201 21.9767 117.356 21.9767C117.531 21.9808 117.676 21.9237 117.79 21.8055C117.904 21.6833 117.961 21.5243 117.961 21.3287V19.6599Z" fill="#616161"/>
<path d="M124.48 22.6063H123.618V20.9008C123.627 20.7093 123.586 20.5565 123.496 20.4424C123.411 20.3282 123.292 20.2732 123.142 20.2773C122.987 20.2814 122.858 20.3405 122.757 20.4546C122.655 20.5646 122.602 20.7154 122.598 20.9069V22.6063H121.754V20.9069C121.758 20.7113 121.713 20.5565 121.62 20.4424C121.53 20.3282 121.406 20.2732 121.247 20.2773C121.084 20.2814 120.945 20.3425 120.831 20.4607C120.721 20.5789 120.666 20.7337 120.666 20.9253V22.6063H119.816V20.5585C119.816 20.4036 119.8 20.3018 119.767 20.2529C119.739 20.1999 119.661 20.1734 119.535 20.1734V19.6538C119.645 19.6212 119.755 19.6008 119.865 19.5927C119.975 19.5804 120.089 19.5825 120.207 19.5988C120.326 19.611 120.419 19.6579 120.489 19.7394C120.562 19.8168 120.599 19.9248 120.599 20.0634C120.672 19.9044 120.796 19.7862 120.972 19.7088C121.151 19.6314 121.342 19.5927 121.546 19.5927C121.795 19.5927 121.988 19.6355 122.127 19.721C122.265 19.8066 122.371 19.9431 122.445 20.1306C122.53 19.9594 122.667 19.827 122.854 19.7333C123.046 19.6395 123.25 19.5927 123.466 19.5927C123.853 19.5927 124.122 19.7108 124.272 19.9472C124.423 20.1795 124.493 20.4974 124.48 20.9008V22.6063Z" fill="#616161"/>
<path d="M126.616 19.5866C127.141 19.5866 127.518 19.7455 127.746 20.0634C127.979 20.3812 128.038 20.7969 127.924 21.3104H125.925C125.953 21.7179 126.214 21.94 126.707 21.9767C126.878 21.9848 127.009 21.9828 127.098 21.9706C127.376 21.938 127.61 21.8789 127.801 21.7933L127.899 22.4168C127.528 22.592 127.147 22.6797 126.756 22.6797C126.255 22.6878 125.847 22.5493 125.534 22.264C125.224 21.9787 125.069 21.5895 125.069 21.0964C125.077 20.6115 125.23 20.2386 125.527 19.9778C125.829 19.717 126.192 19.5866 126.616 19.5866ZM126.616 20.2406C126.444 20.2406 126.296 20.2875 126.169 20.3812C126.043 20.4709 125.964 20.5972 125.931 20.7602H127.227C127.235 20.5809 127.18 20.4505 127.062 20.369C126.944 20.2834 126.795 20.2406 126.616 20.2406Z" fill="#616161"/>
<path d="M131.602 22.6063H130.741V20.9008C130.749 20.7093 130.698 20.5565 130.588 20.4424C130.482 20.3282 130.347 20.2712 130.184 20.2712C130.013 20.2712 129.866 20.3303 129.744 20.4485C129.622 20.5626 129.561 20.7195 129.561 20.9192V22.6063H128.705V20.5707C128.705 20.4811 128.703 20.4179 128.699 20.3812C128.699 20.3445 128.689 20.3079 128.668 20.2712C128.652 20.2345 128.623 20.2121 128.583 20.204C128.546 20.1917 128.493 20.1856 128.424 20.1856V19.6538C129.141 19.5315 129.5 19.664 129.5 20.0511C129.577 19.8922 129.703 19.776 129.879 19.7027C130.058 19.6293 130.245 19.5927 130.441 19.5927C130.836 19.5927 131.128 19.7129 131.315 19.9533C131.507 20.1938 131.602 20.5096 131.602 20.9008V22.6063Z" fill="#616161"/>
<path d="M55.0776 26.4778V27.2786H53.3782V28.1466H54.9676V28.9474H53.3782V29.9255H55.1265V30.7568H52.4552V26.4778H55.0776Z" fill="#616161"/>
<path d="M55.8311 26.2822H56.6747V29.6382C56.6747 29.8582 56.7195 30.0029 56.8092 30.0722C56.8988 30.1374 57.0496 30.1516 57.2615 30.115L57.2921 30.7568C56.8072 30.8424 56.4424 30.8037 56.1979 30.6407C55.9534 30.4777 55.8311 30.1435 55.8311 29.6382V26.2822Z" fill="#616161"/>
<path d="M59.1113 27.7371C59.637 27.7371 60.0139 27.896 60.2421 28.2139C60.4744 28.5317 60.5335 28.9474 60.4194 29.4609H58.4205C58.449 29.8684 58.7098 30.0905 59.203 30.1272C59.3741 30.1353 59.5045 30.1333 59.5942 30.1211C59.8713 30.0885 60.1056 30.0294 60.2972 29.9438L60.395 30.5673C60.0241 30.7425 59.6431 30.8302 59.2519 30.8302C58.7506 30.8383 58.3431 30.6998 58.0293 30.4145C57.7196 30.1292 57.5647 29.74 57.5647 29.2469C57.5729 28.762 57.7257 28.3891 58.0232 28.1283C58.3247 27.8675 58.6874 27.7371 59.1113 27.7371ZM59.1113 28.3911C58.9401 28.3911 58.7914 28.438 58.665 28.5317C58.5387 28.6214 58.4592 28.7477 58.4266 28.9107H59.7225C59.7307 28.7314 59.6757 28.601 59.5575 28.5195C59.4393 28.4339 59.2906 28.3911 59.1113 28.3911Z" fill="#616161"/>
<path d="M61.9526 28.8924H62.1604C62.4742 28.8924 62.6942 28.7966 62.8206 28.6051C62.9469 28.4095 63.0101 28.1425 63.0101 27.8043H63.817C63.8251 28.1466 63.7783 28.44 63.6764 28.6845C63.5745 28.925 63.387 29.1165 63.114 29.2592L63.9576 30.6651V30.7507H63.0957L62.3927 29.5281C62.3193 29.5526 62.2378 29.5648 62.1482 29.5648H61.9526V30.7507H61.1029V26.2883H61.9526V28.8924Z" fill="#616161"/>
<path d="M65.6482 26.8996V27.8165H66.6079V28.4584H65.6482V29.6015C65.6482 29.793 65.6971 29.9377 65.7949 30.0355C65.8968 30.1292 66.0211 30.172 66.1678 30.1639C66.3145 30.1516 66.4735 30.119 66.6446 30.0661L66.7241 30.714C66.4592 30.7874 66.2147 30.8261 65.9905 30.8302C65.7705 30.8342 65.5687 30.8016 65.3854 30.7324C65.2061 30.659 65.0655 30.5286 64.9636 30.3411C64.8617 30.1537 64.8108 29.9132 64.8108 29.6198V28.4584L64.2545 28.4034V27.8165H64.8719L64.9636 26.8996H65.6482Z" fill="#616161"/>
<path d="M68.1985 28.22C68.2555 28.057 68.3594 27.9327 68.5102 27.8471C68.6651 27.7615 68.8363 27.7187 69.0237 27.7187C69.2682 27.7106 69.4781 27.7737 69.6533 27.9082L69.4638 28.6234C69.2927 28.5093 69.1093 28.4563 68.9137 28.4645C68.7181 28.4645 68.553 28.5276 68.4185 28.654C68.2881 28.7762 68.2229 28.9454 68.2229 29.1613V30.7568H67.3855V28.6784C67.3855 28.5358 67.3671 28.436 67.3305 28.3789C67.2938 28.3178 67.2143 28.2974 67.092 28.3178V27.7921C67.2469 27.7676 67.4018 27.7513 67.5566 27.7432C67.7156 27.735 67.8582 27.7717 67.9845 27.8532C68.1109 27.9347 68.1822 28.057 68.1985 28.22Z" fill="#616161"/>
<path d="M72.5151 28.1283C72.8289 28.4013 72.9858 28.7824 72.9858 29.2714C72.9858 29.7604 72.8309 30.1414 72.5212 30.4145C72.2155 30.6835 71.8528 30.8179 71.4331 30.8179C71.0093 30.8179 70.6405 30.6835 70.3267 30.4145C70.0169 30.1414 69.8621 29.7604 69.8621 29.2714C69.8621 28.7905 70.0149 28.4135 70.3206 28.1405C70.6262 27.8675 70.9889 27.7289 71.4086 27.7248C71.8365 27.7207 72.2054 27.8552 72.5151 28.1283ZM70.9257 28.6845C70.7831 28.8231 70.7118 29.0187 70.7118 29.2714C70.7118 29.524 70.7811 29.7217 70.9196 29.8643C71.0582 30.0029 71.2232 30.0722 71.4148 30.0722C71.6104 30.0762 71.7795 30.007 71.9221 29.8643C72.0648 29.7217 72.1361 29.524 72.1361 29.2714C72.1361 29.0228 72.0668 28.8292 71.9282 28.6907C71.7897 28.548 71.6246 28.4767 71.4331 28.4767C71.2375 28.4767 71.0684 28.546 70.9257 28.6845Z" fill="#616161"/>
<path d="M76.5985 30.7568H75.7366V29.0513C75.7448 28.8598 75.6938 28.707 75.5838 28.5929C75.4778 28.4787 75.3433 28.4217 75.1803 28.4217C75.0092 28.4217 74.8625 28.4808 74.7402 28.599C74.618 28.7131 74.5568 28.87 74.5568 29.0697V30.7568H73.701V28.7212C73.701 28.6316 73.699 28.5684 73.6949 28.5317C73.6949 28.495 73.6847 28.4584 73.6643 28.4217C73.648 28.385 73.6195 28.3626 73.5788 28.3545C73.5421 28.3422 73.4891 28.3361 73.4198 28.3361V27.8043C74.1371 27.682 74.4957 27.8145 74.4957 28.2016C74.5731 28.0427 74.6995 27.9265 74.8747 27.8532C75.054 27.7798 75.2415 27.7432 75.4371 27.7432C75.8324 27.7432 76.1238 27.8634 76.3112 28.1038C76.5028 28.3443 76.5985 28.6601 76.5985 29.0513V30.7568Z" fill="#616161"/>
<path d="M77.4437 27.3336C77.3418 27.2439 77.2909 27.1196 77.2909 26.9607C77.2909 26.8018 77.3418 26.6795 77.4437 26.5939C77.5456 26.5084 77.6658 26.4676 77.8043 26.4717C77.9347 26.4758 78.0488 26.5206 78.1467 26.6062C78.2445 26.6917 78.2934 26.8099 78.2934 26.9607C78.2934 27.1156 78.2445 27.2358 78.1467 27.3214C78.0529 27.407 77.9409 27.4518 77.8104 27.4559C77.6719 27.4599 77.5496 27.4192 77.4437 27.3336ZM78.22 27.8471V30.7568H77.3642V27.8471H78.22Z" fill="#616161"/>
<path d="M79.8733 28.8924H80.0811C80.3949 28.8924 80.615 28.7966 80.7413 28.6051C80.8677 28.4095 80.9308 28.1425 80.9308 27.8043H81.7377C81.7459 28.1466 81.699 28.44 81.5971 28.6845C81.4953 28.925 81.3078 29.1165 81.0347 29.2592L81.8783 30.6651V30.7507H81.0164L80.3134 29.5281C80.2401 29.5526 80.1586 29.5648 80.0689 29.5648H79.8733V30.7507H79.0236V26.2883H79.8733V28.8924Z" fill="#616161"/>
<path d="M86.7827 26.4778V29.3386C86.7827 29.7869 86.6237 30.1455 86.3059 30.4145C85.9921 30.6835 85.6049 30.8179 85.1444 30.8179C84.688 30.8179 84.307 30.6855 84.0013 30.4206C83.6997 30.1516 83.549 29.791 83.549 29.3386V28.819H84.3986V29.3203C84.3986 29.5444 84.4659 29.7156 84.6004 29.8338C84.7389 29.9479 84.9203 30.0049 85.1444 30.0049C85.3645 30.0049 85.5397 29.9458 85.6701 29.8277C85.8005 29.7095 85.8657 29.5403 85.8657 29.3203V27.2664H85.1016V26.4778H86.7827Z" fill="#616161"/>
<path d="M89.4669 30.3045C89.3854 30.4756 89.2469 30.604 89.0513 30.6896C88.8597 30.7711 88.658 30.8118 88.4461 30.8118C88.1608 30.8118 87.9122 30.7283 87.7003 30.5612C87.4925 30.39 87.3845 30.1659 87.3763 29.8888C87.36 29.5424 87.4599 29.2795 87.6759 29.1002C87.8919 28.9168 88.173 28.8251 88.5194 28.8251C88.8414 28.8251 89.1022 28.8883 89.3019 29.0146V28.8129C89.3019 28.5317 89.0574 28.3911 88.5683 28.3911C88.2138 28.3911 87.9306 28.4502 87.7187 28.5684L87.6086 27.9571C87.9183 27.8104 88.2872 27.7371 88.7151 27.7371C89.6524 27.7371 90.121 28.1038 90.121 28.8374V29.901C90.121 29.9825 90.121 30.0396 90.121 30.0722C90.1251 30.1048 90.1353 30.1435 90.1516 30.1883C90.1679 30.2291 90.1944 30.2556 90.231 30.2678C90.2718 30.28 90.3268 30.2841 90.3961 30.28L90.4022 30.7568C90.2473 30.7853 90.1006 30.7996 89.9621 30.7996C89.8235 30.7996 89.7053 30.7588 89.6075 30.6773C89.5138 30.5918 89.4669 30.4675 89.4669 30.3045ZM89.2836 29.6993V29.5465C89.1165 29.4324 88.9127 29.3753 88.6723 29.3753C88.5296 29.3835 88.4135 29.4283 88.3238 29.5098C88.2342 29.5872 88.1975 29.6952 88.2138 29.8338C88.2219 29.9356 88.2647 30.0151 88.3422 30.0722C88.4196 30.1251 88.5113 30.1516 88.6172 30.1516C88.7762 30.1516 88.9229 30.1129 89.0574 30.0355C89.1959 29.954 89.2713 29.8419 89.2836 29.6993Z" fill="#616161"/>
<path d="M92.1386 30.7996H91.7596L90.5493 27.9082V27.8104H91.4601L91.7719 28.6723L91.998 29.3447H92.0103L92.6705 27.8776H92.9944L93.6607 29.3447H93.6791L93.8992 28.6723L94.1865 27.8104H95.1095V27.9082L93.8869 30.7996H93.5629L93.1962 30.0783L92.8294 29.3019L92.4749 30.1027L92.1386 30.7996Z" fill="#616161"/>
<path d="M97.4125 30.3045C97.331 30.4756 97.1924 30.604 96.9968 30.6896C96.8053 30.7711 96.6035 30.8118 96.3916 30.8118C96.1064 30.8118 95.8578 30.7283 95.6459 30.5612C95.438 30.39 95.33 30.1659 95.3219 29.8888C95.3056 29.5424 95.4054 29.2795 95.6214 29.1002C95.8374 28.9168 96.1186 28.8251 96.465 28.8251C96.7869 28.8251 97.0477 28.8883 97.2474 29.0146V28.8129C97.2474 28.5317 97.0029 28.3911 96.5139 28.3911C96.1593 28.3911 95.8761 28.4502 95.6642 28.5684L95.5542 27.9571C95.8639 27.8104 96.2327 27.7371 96.6606 27.7371C97.5979 27.7371 98.0666 28.1038 98.0666 28.8374V29.901C98.0666 29.9825 98.0666 30.0396 98.0666 30.0722C98.0706 30.1048 98.0808 30.1435 98.0971 30.1883C98.1134 30.2291 98.1399 30.2556 98.1766 30.2678C98.2173 30.28 98.2724 30.2841 98.3416 30.28L98.3477 30.7568C98.1929 30.7853 98.0462 30.7996 97.9076 30.7996C97.7691 30.7996 97.6509 30.7588 97.5531 30.6773C97.4593 30.5918 97.4125 30.4675 97.4125 30.3045ZM97.2291 29.6993V29.5465C97.062 29.4324 96.8582 29.3753 96.6178 29.3753C96.4752 29.3835 96.359 29.4283 96.2694 29.5098C96.1797 29.5872 96.143 29.6952 96.1593 29.8338C96.1675 29.9356 96.2103 30.0151 96.2877 30.0722C96.3651 30.1251 96.4568 30.1516 96.5628 30.1516C96.7217 30.1516 96.8684 30.1129 97.0029 30.0355C97.1415 29.954 97.2169 29.8419 97.2291 29.6993Z" fill="#616161"/>
<path d="M103.671 27.7493C103.671 27.9082 103.632 28.059 103.555 28.2016C103.482 28.3443 103.378 28.4563 103.243 28.5378C103.651 28.709 103.854 29.0269 103.854 29.4914C103.854 29.8745 103.734 30.1822 103.494 30.4145C103.253 30.6427 102.921 30.7568 102.497 30.7568H100.511V26.4839H102.326C102.726 26.4839 103.05 26.598 103.298 26.8262C103.547 27.0504 103.671 27.3581 103.671 27.7493ZM102.259 27.2664H101.421V28.2383H102.259C102.414 28.2383 102.536 28.1976 102.626 28.116C102.719 28.0345 102.768 27.9225 102.772 27.7798C102.776 27.625 102.732 27.5007 102.638 27.407C102.544 27.3132 102.418 27.2664 102.259 27.2664ZM102.393 28.9841H101.421V29.9621H102.436C102.591 29.9621 102.713 29.9214 102.803 29.8399C102.893 29.7543 102.942 29.6382 102.95 29.4914C102.958 29.304 102.895 29.1634 102.76 29.0697C102.679 29.0126 102.556 28.9841 102.393 28.9841Z" fill="#616161"/>
<path d="M106.403 30.3045C106.321 30.4756 106.183 30.604 105.987 30.6896C105.795 30.7711 105.594 30.8118 105.382 30.8118C105.097 30.8118 104.848 30.7283 104.636 30.5612C104.428 30.39 104.32 30.1659 104.312 29.8888C104.296 29.5424 104.396 29.2795 104.612 29.1002C104.828 28.9168 105.109 28.8251 105.455 28.8251C105.777 28.8251 106.038 28.8883 106.238 29.0146V28.8129C106.238 28.5317 105.993 28.3911 105.504 28.3911C105.15 28.3911 104.866 28.4502 104.654 28.5684L104.544 27.9571C104.854 27.8104 105.223 27.7371 105.651 27.7371C106.588 27.7371 107.057 28.1038 107.057 28.8374V29.901C107.057 29.9825 107.057 30.0396 107.057 30.0722C107.061 30.1048 107.071 30.1435 107.087 30.1883C107.104 30.2291 107.13 30.2556 107.167 30.2678C107.208 30.28 107.263 30.2841 107.332 30.28L107.338 30.7568C107.183 30.7853 107.036 30.7996 106.898 30.7996C106.759 30.7996 106.641 30.7588 106.543 30.6773C106.45 30.5918 106.403 30.4675 106.403 30.3045ZM106.219 29.6993V29.5465C106.052 29.4324 105.848 29.3753 105.608 29.3753C105.465 29.3835 105.349 29.4283 105.26 29.5098C105.17 29.5872 105.133 29.6952 105.15 29.8338C105.158 29.9356 105.201 30.0151 105.278 30.0722C105.355 30.1251 105.447 30.1516 105.553 30.1516C105.712 30.1516 105.859 30.1129 105.993 30.0355C106.132 29.954 106.207 29.8419 106.219 29.6993Z" fill="#616161"/>
<path d="M108.822 28.22C108.879 28.057 108.983 27.9327 109.133 27.8471C109.288 27.7615 109.459 27.7187 109.647 27.7187C109.891 27.7106 110.101 27.7737 110.276 27.9082L110.087 28.6234C109.916 28.5093 109.732 28.4563 109.537 28.4645C109.341 28.4645 109.176 28.5276 109.042 28.654C108.911 28.7762 108.846 28.9454 108.846 29.1613V30.7568H108.009V28.6784C108.009 28.5358 107.99 28.436 107.954 28.3789C107.917 28.3178 107.837 28.2974 107.715 28.3178V27.7921C107.87 27.7676 108.025 27.7513 108.18 27.7432C108.339 27.735 108.481 27.7717 108.608 27.8532C108.734 27.9347 108.805 28.057 108.822 28.22Z" fill="#616161"/>
<path d="M112.563 30.3045C112.482 30.4756 112.343 30.604 112.148 30.6896C111.956 30.7711 111.754 30.8118 111.542 30.8118C111.257 30.8118 111.009 30.7283 110.797 30.5612C110.589 30.39 110.481 30.1659 110.473 29.8888C110.456 29.5424 110.556 29.2795 110.772 29.1002C110.988 28.9168 111.269 28.8251 111.616 28.8251C111.938 28.8251 112.199 28.8883 112.398 29.0146V28.8129C112.398 28.5317 112.154 28.3911 111.665 28.3911C111.31 28.3911 111.027 28.4502 110.815 28.5684L110.705 27.9571C111.015 27.8104 111.384 27.7371 111.811 27.7371C112.749 27.7371 113.217 28.1038 113.217 28.8374V29.901C113.217 29.9825 113.217 30.0396 113.217 30.0722C113.221 30.1048 113.232 30.1435 113.248 30.1883C113.264 30.2291 113.291 30.2556 113.327 30.2678C113.368 30.28 113.423 30.2841 113.492 30.28L113.499 30.7568C113.344 30.7853 113.197 30.7996 113.058 30.7996C112.92 30.7996 112.802 30.7588 112.704 30.6773C112.61 30.5918 112.563 30.4675 112.563 30.3045ZM112.38 29.6993V29.5465C112.213 29.4324 112.009 29.3753 111.769 29.3753C111.626 29.3835 111.51 29.4283 111.42 29.5098C111.331 29.5872 111.294 29.6952 111.31 29.8338C111.318 29.9356 111.361 30.0151 111.439 30.0722C111.516 30.1251 111.608 30.1516 111.714 30.1516C111.873 30.1516 112.019 30.1129 112.154 30.0355C112.292 29.954 112.368 29.8419 112.38 29.6993Z" fill="#616161"/>
<path d="M115.142 26.8996V27.8165H116.102V28.4584H115.142V29.6015C115.142 29.793 115.191 29.9377 115.289 30.0355C115.391 30.1292 115.515 30.172 115.662 30.1639C115.809 30.1516 115.967 30.119 116.139 30.0661L116.218 30.714C115.953 30.7874 115.709 30.8261 115.485 30.8302C115.264 30.8342 115.063 30.8016 114.879 30.7324C114.7 30.659 114.559 30.5286 114.458 30.3411C114.356 30.1537 114.305 29.9132 114.305 29.6198V28.4584L113.748 28.4034V27.8165H114.366L114.458 26.8996H115.142Z" fill="#616161"/>
</svg>
